
<svg width="20px" height="20px" viewBox="0 0 20 20" version="1.1" xmlns="http://www.w3.org/2000/svg" xmlns:xlink="http://www.w3.org/1999/xlink">
    <g id="Page-1" stroke="none" stroke-width="1" fill="none" fill-rule="evenodd">
        <g id="Desktop-Copy-2" transform="translate(-365.000000, -366.000000)" fill="#FFFFFF" fill-rule="nonzero">
            <path d="M379.415482,379.172749 C380.059952,378.856448 380.79763,378.676399 381.583244,378.676399 L381.585907,378.676399 C381.6658,378.676399 381.703084,378.588808 381.644495,378.540146 C380.827494,377.870263 379.89421,377.329221 378.882862,376.939173 C378.872209,376.934307 378.861557,376.931873 378.850905,376.927007 C380.504689,375.829684 381.580581,374.046229 381.580581,372.034063 C381.580581,368.70073 378.629867,366 374.989411,366 C371.348955,366 368.400905,368.70073 368.400905,372.034063 C368.400905,374.046229 369.476797,375.829684 371.133244,376.927007 C371.122592,376.931873 371.111939,376.934307 371.101287,376.939173 C369.910882,377.399027 368.842979,378.058394 367.92421,378.900243 C367.010746,379.733297 366.283511,380.720844 365.783079,381.807786 C365.290707,382.87217 365.024978,384.012565 365.000061,385.167883 C364.998691,385.220345 365.020502,385.271113 365.060613,385.308676 C365.100724,385.346239 365.155737,385.367397 365.213175,385.367397 L366.808372,385.367397 C366.922885,385.367397 367.018756,385.282238 367.02142,385.177616 C367.074681,383.29927 367.897579,381.540146 369.354294,380.206813 C370.858945,378.827251 372.861595,378.068127 374.992074,378.068127 C376.502051,378.068127 377.950777,378.450122 379.199771,379.16545 C379.265075,379.202941 379.34732,379.205724 379.415482,379.172749 L379.415482,379.172749 Z M374.992074,376.218978 C373.772375,376.218978 372.62458,375.783455 371.759072,374.992701 C370.898967,374.208918 370.416792,373.143937 370.419522,372.034063 C370.419522,370.917275 370.896228,369.86618 371.759072,369.075426 C372.621916,368.284672 373.769712,367.849148 374.992074,367.849148 C376.214437,367.849148 377.359569,368.284672 378.225076,369.075426 C379.085182,369.859209 379.567357,370.924189 379.564627,372.034063 C379.564627,373.150852 379.087921,374.201946 378.225076,374.992701 C377.359569,375.783455 376.211774,376.218978 374.992074,376.218978 Z M384.786952,382.009732 L382.549949,382.009732 L382.549949,379.965937 C382.549949,379.858881 382.454077,379.77129 382.336901,379.77129 L380.845566,379.77129 C380.728389,379.77129 380.632518,379.858881 380.632518,379.965937 L380.632518,382.009732 L378.395515,382.009732 C378.278338,382.009732 378.182467,382.097324 378.182467,382.20438 L378.182467,383.56691 C378.182467,383.673966 378.278338,383.761557 378.395515,383.761557 L380.632518,383.761557 L380.632518,385.805353 C380.632518,385.912409 380.728389,386 380.845566,386 L382.336901,386 C382.454077,386 382.549949,385.912409 382.549949,385.805353 L382.549949,383.761557 L384.786952,383.761557 C384.904128,383.761557 385,383.673966 385,383.56691 L385,382.20438 C385,382.097324 384.904128,382.009732 384.786952,382.009732 Z" id="Shape"></path>
        </g>
    </g>
</svg>