
<svg width="20px" height="20px" viewBox="0 0 20 20" version="1.1" xmlns="http://www.w3.org/2000/svg" xmlns:xlink="http://www.w3.org/1999/xlink">
    <g id="Page-1" stroke="none" stroke-width="1" fill="none" fill-rule="evenodd">
        <g id="Desktop-Copy-2" transform="translate(-365.000000, -298.000000)" fill="#FFFFFF" fill-rule="nonzero">
            <g id="Group" transform="translate(365.000000, 298.000000)">
                <path d="M14.8084639,0.131492303 C17.1595832,0.609809352 19.0532462,2.34620263 19.7298354,4.64414122 C20.0374211,5.67805192 20.0832013,6.77194086 19.8628841,7.82870042 C19.2070474,10.8103742 16.5732666,12.9434656 13.5151733,12.9696928 C12.8885568,12.9696928 12.2648016,12.8797255 11.6653671,12.6983627 L10.5208621,14.0378768 L9.97865287,14.2877862 L8.58378742,14.2877862 L8.58378742,16.4298664 L7.8684718,17.1438931 L5.72252495,17.1438931 L5.72252495,19.2859733 L5.00720933,20 L0.715315618,20 L0,19.2859733 L0,15.991454 L0.208872161,15.4873511 L7.32483193,8.38421321 C7.12288252,7.73491715 7.02628671,7.05755425 7.03870568,6.37779811 C7.06510352,4.45229943 7.94987162,2.63873325 9.45220487,1.4306933 C10.9545381,0.22265335 12.9180967,-0.254146102 14.8084639,0.130064249 L14.8084639,0.131492303 Z M16.6940359,10.4134772 C17.5927471,9.68703859 18.2177135,8.6775149 18.466588,7.55022999 L18.4723105,7.55737026 C18.8324381,5.8826788 18.3192968,4.13981904 17.1086972,2.92592373 C15.8980977,1.71202842 14.1544302,1.19193539 12.4751044,1.54383717 C10.1812781,2.05203671 8.52915919,4.05456634 8.46933692,6.39921891 C8.45503061,7.05041128 8.56948111,7.69589145 8.81125779,8.29853 L8.65388835,9.07396303 L1.43063124,16.287061 L1.43063124,18.5719465 L4.29189371,18.5719465 L4.29189371,16.4298664 L5.00720933,15.7158396 L7.15315618,15.7158396 L7.15315618,13.5737595 L7.8684718,12.8597327 L9.64960769,12.8597327 L10.9028407,11.4088304 L11.7054248,11.2089029 C12.2839518,11.4345684 12.8997667,11.5498559 13.5208958,11.5487797 C14.6768827,11.5399285 15.7956265,11.1396586 16.6940359,10.4134772 L16.6940359,10.4134772 Z M15.4951669,6.51203513 C15.8023451,6.08833744 15.8529148,5.53091735 15.626985,5.05902971 C15.4010552,4.58714207 14.9347743,4.27628815 14.4115485,4.24873879 C13.8883228,4.22118943 13.3918676,4.4813525 13.1174578,4.9268958 C12.7146139,5.58097025 12.9019847,6.43593307 13.5416282,6.86236203 C14.1812716,7.28879098 15.0442177,7.1340394 15.4951669,6.51203513 L15.4951669,6.51203513 Z" id="Shape"></path>
            </g>
        </g>
    </g>
</svg>