
<svg width="20px" height="20px" viewBox="0 0 20 20" version="1.1" xmlns="http://www.w3.org/2000/svg" xmlns:xlink="http://www.w3.org/1999/xlink">
    <g id="Page-1" stroke="none" stroke-width="1" fill="none" fill-rule="evenodd">
        <g id="Desktop-Copy-2" transform="translate(-365.000000, -230.000000)" fill="#FFFFFF" fill-rule="nonzero">
            <g id="Group-2" transform="translate(365.000000, 230.000000)">
                <path d="M2.83956314,12.0904476 C2.97492693,12.1227503 3.15874481,12.2896477 3.21181357,12.441932 L3.48100292,13.0910629 C3.54176281,13.2156591 3.53022612,13.4625442 3.45792955,13.5809875 L2.38347946,15.3376404 C2.15351484,15.7145055 2.20119982,16.2482695 2.51038302,16.5943701 L3.42024304,17.503461 C3.73711737,17.7849562 4.29626211,17.8357176 4.66082141,17.6149823 L6.41747423,16.5405322 C6.52745731,16.4728503 6.76357483,16.4490078 6.92893401,16.5266882 L7.5772958,16.7943393 C7.70804492,16.839717 7.87494232,17.0227657 7.90724504,17.1581295 L8.38947854,19.1608983 C8.4917705,19.5854484 8.89709275,19.9346254 9.3324104,19.9746193 C9.3324104,19.9746193 9.59929242,19.9992309 9.99923089,19.9992309 C10.3991694,19.9992309 10.6660514,19.9746193 10.6668205,19.9746193 C11.1176679,19.9214337 11.4907564,19.599207 11.6089832,19.1608983 L12.0919858,17.1581295 C12.1242886,17.0235348 12.2904169,16.839717 12.4427011,16.7866482 L13.091832,16.5174589 C13.2064298,16.4613136 13.4717736,16.4728503 13.5817567,16.5405322 L15.3384095,17.6149823 C15.4930011,17.7095831 15.6775881,17.7595754 15.8737117,17.7595754 C16.1390555,17.7595754 16.3959391,17.6665128 16.5951392,17.4888479 L17.5042301,16.5789878 C17.7995245,16.230451 17.8441506,15.7340235 17.6157514,15.3384095 L16.5413013,13.5817567 C16.4690048,13.4633133 16.4574681,13.2164282 16.5274573,13.0702969 L16.7951084,12.4219351 C16.8404861,12.291186 17.0235348,12.1242886 17.1588986,12.0919858 L19.1616674,11.6097523 C19.5999765,11.491044 19.9220905,11.1177815 19.9753884,10.6668205 C19.9753884,10.6668205 20,10.3999385 20,10 C20,9.60006153 19.9753884,9.33317951 19.9753884,9.3324104 C19.9218876,8.88153875 19.5998584,8.50837452 19.1616674,8.38947854 L17.1596677,7.90801415 C17.024304,7.87571143 16.8404861,7.70881403 16.7874173,7.55652976 L16.518228,6.90739886 C16.4574681,6.78280265 16.4690048,6.53591755 16.5413013,6.41747423 L17.6157514,4.66082141 C17.845716,4.28395631 17.7980311,3.75019228 17.4888479,3.40409168 L16.5789878,2.49500077 C16.2613444,2.2127365 15.7014305,2.16197508 15.3384095,2.38347946 L13.5817567,3.45792955 C13.4717736,3.52484233 13.2348869,3.55022304 13.0702969,3.47177357 L12.4219351,3.20412244 C12.291186,3.15874481 12.1250577,2.97569605 12.092755,2.84033226 L11.6097523,0.837563452 C11.491044,0.399254346 11.1177815,0.0771403706 10.6668205,0.0238424858 C10.6652823,0.0246115982 10.3984002,-2.7324363e-15 9.99846178,-2.7324363e-15 C9.5985233,-2.7324363e-15 9.33164129,0.0246115982 9.33087217,0.0246115982 C8.88000052,0.0781124259 8.50683629,0.400141587 8.38794032,0.838332564 L7.90647593,2.83956314 C7.8741732,2.97492693 7.7072758,3.15874481 7.55499154,3.21181357 L6.90586064,3.48100292 C6.79049377,3.53714813 6.52591909,3.52484233 6.41593601,3.45792955 L4.6600523,2.38347946 C4.29626211,2.16197508 3.74865405,2.2004307 3.40332257,2.50961391 L2.49423166,3.41947393 C2.1989373,3.76801077 2.15431115,4.26443823 2.38271035,4.6600523 L3.45716044,6.41670512 C3.52945701,6.53514844 3.54099369,6.78203353 3.47100446,6.9281649 L3.20335333,7.57652669 C3.1579757,7.7072758 2.97492693,7.8741732 2.83956314,7.90647593 L0.836794339,8.38870943 C0.398485234,8.50741773 0.0763712582,8.88068024 0.0230733733,9.33164129 C0.0246115982,9.33164129 -3.41554538e-14,9.5985233 -3.41554538e-14,9.99846178 C-3.41554538e-14,10.3984002 0.0246115982,10.6652823 0.0246115982,10.6660514 C0.0781124259,11.116923 0.400141587,11.4900873 0.838332564,11.6089832 L2.83956314,12.0904476 Z M0.769112444,9.99846178 C0.769112444,9.64620828 0.78987848,9.40855253 0.790647593,9.40086141 C0.815562752,9.27918027 0.901701363,9.17907323 1.01830488,9.13628673 L3.02107368,8.65405322 C3.40947547,8.5602215 3.8009537,8.20489156 3.92247347,7.84879249 L4.1716659,7.243501 C4.34702353,6.88432549 4.32241194,6.35671435 4.11398246,6.01522843 L3.03953238,4.25934472 C2.98800185,4.17397323 3.00261498,4.0047685 3.0533764,3.94708506 L3.9309337,3.06875865 C4.00092293,3.00646054 4.17935702,2.9910783 4.25934472,3.03953238 L6.01599754,4.11398246 C6.34902323,4.31779726 6.91970466,4.33164129 7.22196585,4.18166436 L7.82802646,3.9309337 C8.20566067,3.8009537 8.56099062,3.40947547 8.65482234,3.02030457 L9.13628673,1.01830488 C9.1787279,0.901316042 9.27893323,0.814801559 9.40086141,0.78987848 C9.40855253,0.78987848 9.64620828,0.769112444 9.99846178,0.769112444 C10.3507153,0.769112444 10.588371,0.78987848 10.5960621,0.790647593 C10.7177433,0.815562752 10.8178503,0.901701363 10.8606368,1.01830488 L11.3428703,3.02030457 C11.436702,3.40870635 11.7912629,3.8009537 12.1481311,3.92247347 L12.7534226,4.1716659 C13.1049069,4.34394709 13.6494385,4.31702815 13.9816951,4.11398246 L15.7375788,3.03953238 C15.8175665,2.9910783 16.0067682,3.01645901 16.0498385,3.0533764 L16.9281649,3.9309337 C16.9943086,4.00553761 17.0089217,4.17397323 16.9573912,4.25934472 L15.8829411,6.01599754 C15.6745116,6.35671435 15.6499,6.8850946 15.8152592,7.22196585 L16.0659898,7.82802646 C16.1959699,8.20566067 16.5874481,8.56099062 16.976619,8.65482234 L18.9786187,9.13628673 C19.0956075,9.1787279 19.182122,9.27893323 19.2070451,9.40086141 C19.2070451,9.40855253 19.2278111,9.64620828 19.2278111,9.99846178 C19.2278111,10.3507153 19.2070451,10.588371 19.206276,10.5960621 C19.1813608,10.7177433 19.0952222,10.8178503 18.9786187,10.8606368 L16.9758499,11.3428703 C16.5874481,11.436702 16.1959699,11.792032 16.0744501,12.1481311 L15.8252577,12.7534226 C15.6499,13.1125981 15.6745116,13.6402092 15.8829411,13.9816951 L16.9573912,15.7375788 C17.0089217,15.8229503 16.9943086,15.9921551 16.9435471,16.0498385 L16.0659898,16.9281649 C16.0103909,16.9697199 15.9423194,16.9911448 15.8729426,16.9889248 C15.8260832,16.9904537 15.7796517,16.9795754 15.7383479,16.9573912 L13.9816951,15.8829411 C13.6494385,15.6798954 13.0787571,15.6652823 12.7757268,15.8152592 L12.1696662,16.0659898 C11.792032,16.1959699 11.436702,16.5882172 11.3436394,16.976619 L10.8614059,18.9786187 C10.8189648,19.0956075 10.7187594,19.182122 10.5968313,19.2070451 C10.588371,19.2070451 10.3507153,19.2278111 9.99846178,19.2278111 C9.64620828,19.2278111 9.40855253,19.2070451 9.40086141,19.206276 C9.27918027,19.1813608 9.17907323,19.0952222 9.13628673,18.9786187 L8.65405322,16.9758499 C8.5602215,16.5874481 8.20489156,16.1959699 7.84879249,16.0744501 L7.243501,15.8252577 C7.07138453,15.7452365 6.88336953,15.7052669 6.6935856,15.7083526 C6.44054761,15.7083526 6.19981541,15.7706507 6.01522843,15.8837102 L4.25934472,16.9581603 C4.17935702,17.0066144 3.98938625,16.9804645 3.94708506,16.9443163 L3.06875865,16.0659898 C3.00261498,15.9913859 2.98800185,15.8229503 3.03953238,15.7375788 L4.11398246,13.980926 C4.32241194,13.6402092 4.34702353,13.1118289 4.18166436,12.7749577 L3.9309337,12.1688971 C3.8009537,11.7912629 3.40947547,11.4359329 3.02030457,11.3421012 L1.01830488,10.8606368 C0.901316042,10.8181957 0.814801559,10.7179903 0.78987848,10.5960621 C0.78987848,10.588371 0.769112444,10.3507153 0.769112444,9.99846178 Z" id="Shape"></path>
                <path d="M9.99846178,14.2285802 C12.3311798,14.2285802 14.2285802,12.3311798 14.2285802,9.99846178 C14.2285802,7.66574373 12.3311798,5.76834333 9.99846178,5.76834333 C7.66574373,5.76834333 5.76834333,7.66574373 5.76834333,9.99846178 C5.76834333,12.3311798 7.66574373,14.2285802 9.99846178,14.2285802 Z M9.99846178,6.53745578 C11.9066297,6.53745578 13.4594678,8.0902938 13.4594678,9.99846178 C13.4594678,11.9066297 11.9066297,13.4594678 9.99846178,13.4594678 C8.0902938,13.4594678 6.53745578,11.9066297 6.53745578,9.99846178 C6.53745578,8.0902938 8.0902938,6.53745578 9.99846178,6.53745578 Z" id="Shape"></path>
            </g>
        </g>
    </g>
</svg>