
<svg width="20px" height="20px" viewBox="0 0 20 20" version="1.1" xmlns="http://www.w3.org/2000/svg" xmlns:xlink="http://www.w3.org/1999/xlink">
    <g id="Page-1" stroke="none" stroke-width="1" fill="none" fill-rule="evenodd">
        <g id="Desktop-Copy-2" transform="translate(-365.000000, -434.000000)" fill="#FFFFFF" fill-rule="nonzero">
            <g id="Group" transform="translate(365.000000, 434.000000)">
                <path d="M3.2235818,0 C1.44324673,0 0,1.53911096 0,3.43770055 L0,14.0608203 C0,15.9594099 1.44324673,17.4985208 3.2235818,17.4985208 L10.1220468,17.4985208 C10.161902,17.398515 10.2087905,17.2985092 10.2603678,17.2022535 L11.1160823,15.6246615 L3.2235818,15.6246615 C2.41475582,15.6246615 1.75831734,14.9246207 1.75831734,14.0620704 L1.75831734,5.00029171 L14.6491279,5.00029171 L14.6491279,6.43787557 C15.1934259,6.12786918 15.7921851,5.94184401 16.4074452,5.89159371 L16.4074452,3.43770055 C16.4074452,1.53911096 14.9641985,0 13.1838634,0 L3.2235818,0 Z" id="Path"></path>
                <path d="M14.0923274,12.6257366 C13.3176718,11.4726024 13.2779659,9.93312237 13.9920125,8.73632175 C14.706059,7.53952112 16.0305153,6.92565409 17.3381812,7.18541918 L15.8014119,10.0230847 C15.5186084,10.5753084 15.7006969,11.267294 16.2116208,11.5819893 C16.7225446,11.8966846 17.3755947,11.7190891 17.6828114,11.1819023 L19.2184086,8.34423679 C20.0793159,9.41838635 20.2446253,10.9414891 19.6365622,12.1969564 C19.0284991,13.4524236 17.7681457,14.1902568 16.4484727,14.0633204 L13.6269594,19.2761245 C13.2517943,19.9685919 12.4212714,20.205615 11.7719346,19.8055304 C11.1225979,19.4054458 10.9003379,18.5197574 11.275503,17.82729 L14.0923274,12.6257366 L14.0923274,12.6257366 Z" id="Path"></path>
                <path d="M12.3808985,11.4319169 C12.2334027,10.5589462 12.3203654,9.65929142 12.6317518,8.83676552 L10.3787612,6.43287528 C10.1495835,6.18847504 9.77801308,6.18847505 9.54883541,6.4328753 C9.31965774,6.67727555 9.31965773,7.07352665 9.54883539,7.31792691 L12.0655736,10.0005834 L9.54883539,12.6832399 C9.31965773,12.9276402 9.31965774,13.3238913 9.54883541,13.5682915 C9.77801308,13.8126918 10.1495835,13.8126918 10.3787612,13.5682916 L12.3808985,11.4319169 L12.3808985,11.4319169 Z" id="Path"></path>
                <path d="M7.44823227,6.43287528 C7.55846904,6.55013745 7.62042286,6.70935734 7.62042286,6.8754011 C7.62042286,7.04144486 7.55846904,7.20066475 7.44823227,7.31792691 L4.93149405,10.0005834 L7.44823227,12.6832399 C7.67740994,12.9276402 7.67740994,13.3238913 7.44823227,13.5682915 C7.21905459,13.8126918 6.84748416,13.8126918 6.61830649,13.5682916 L3.68777758,10.4431092 C3.57754081,10.3258471 3.51558699,10.1666272 3.51558699,10.0005834 C3.51558699,9.83453965 3.57754081,9.67531977 3.68777758,9.5580576 L6.61830649,6.43287528 C6.72826493,6.3153163 6.87756773,6.24924734 7.03326938,6.24924734 C7.18897103,6.24924734 7.33827383,6.3153163 7.44823227,6.43287528 Z" id="Path"></path>
            </g>
        </g>
    </g>
</svg>